<?xml version="1.0" encoding="utf-8"?>
<!-- Generator: Adobe Illustrator 22.1.0, SVG Export Plug-In . SVG Version: 6.00 Build 0)  -->
<svg version="1.1" id="Layer_1" xmlns="http://www.w3.org/2000/svg" xmlns:xlink="http://www.w3.org/1999/xlink" x="0px" y="0px"
	 viewBox="0 0 68 48" style="enable-background:new 0 0 68 48;" xml:space="preserve">
<style type="text/css">
	.st0{fill:#8FC9F7;}
</style>
<title>icon-quote-open</title>
<desc>Created with Sketch.</desc>
<g id="HOME---design">
	<g id="dragonflysg_design_desktop" transform="translate(-324.000000, -6229.000000)">
		<g id="section-testimonials" transform="translate(-4.000000, 5916.000000)">
			<path id="icon-quote-open" class="st0" d="M395.9,346.6c0,4.1-1.3,7.5-3.9,10.3c-2.6,2.7-6.1,4.1-10.3,4.1
				c-5.2,0-9.4-1.9-12.7-5.8c-3.3-3.8-5-8.4-5-13.8c0-7.8,2.9-14.5,8.7-20.1c5.8-5.6,12.8-8.4,21-8.4l0.3,2.2
				c-5.1,0-9.7,1.8-13.9,5.4c-4.2,3.6-6.3,7.7-6.3,12.3c0,1.1,0.1,1.8,0.4,2.4c0.3,0.5,0.7,0.8,1.2,0.8c0.7,0,1.9-0.3,3.4-1
				c1.5-0.7,2.8-1,3.9-1c3.5,0,6.6,1.2,9.2,3.6C394.6,339.9,395.9,342.9,395.9,346.6z M359.9,346.6c0,4.1-1.3,7.5-3.9,10.3
				c-2.6,2.7-6.1,4.1-10.3,4.1c-5.2,0-9.4-1.9-12.7-5.8c-3.3-3.8-5-8.4-5-13.8c0-7.8,2.9-14.5,8.7-20.1c5.8-5.6,12.8-8.4,21-8.4
				l0.3,2.2c-5.1,0-9.7,1.8-13.9,5.4c-4.2,3.6-6.3,7.7-6.3,12.3c0,1.1,0.1,1.8,0.4,2.4c0.3,0.5,0.7,0.8,1.2,0.8c0.7,0,1.9-0.3,3.4-1
				c1.5-0.7,2.8-1,3.9-1c3.5,0,6.6,1.2,9.2,3.6C358.6,339.9,359.9,342.9,359.9,346.6z"/>
		</g>
	</g>
</g>
</svg>
