<?xml version="1.0" encoding="UTF-8" standalone="no"?>
<svg width="745px" height="606px" viewBox="0 0 745 606" version="1.1" xmlns="http://www.w3.org/2000/svg" xmlns:xlink="http://www.w3.org/1999/xlink">
    <!-- Generator: Sketch 42 (36781) - http://www.bohemiancoding.com/sketch -->
    <title>icon-twitter-ghosted</title>
    <desc>Created with Sketch.</desc>
    <defs></defs>
    <g id="HOME---design" stroke="none" stroke-width="1" fill="none" fill-rule="evenodd" opacity="0.100000001">
        <g id="dragonflysg_design_desktop" transform="translate(-688.000000, -2570.000000)" fill="#4990E2">
            <g id="section-twitter" transform="translate(0.000000, 2554.000000)">
                <path d="M1433.05917,87.8593253 C1403.75027,100.468362 1374.42976,108.342482 1345.13189,111.504896 C1378.22408,91.6484193 1400.60527,63.5986794 1412.2679,27.3556766 C1382.00215,45.3147054 1349.69853,57.6045997 1315.34775,64.2253595 C1285.08664,32.0789882 1247.90391,16 1203.77518,16 C1161.5439,16 1125.53881,30.8894565 1095.74829,60.674172 C1065.96357,90.4588875 1051.07412,126.463984 1051.07412,168.695264 C1051.07412,180.039335 1052.33328,191.702549 1054.85741,203.679104 C992.450507,200.528295 933.908135,184.849686 879.224488,156.643276 C824.540842,128.431063 778.131694,90.8476613 739.997046,43.8872672 C726.128846,67.521233 719.194746,93.2093171 719.194746,120.945717 C719.194746,147.103811 725.339693,171.376062 737.63539,193.750865 C749.925284,216.125668 766.474283,234.247169 787.276582,248.115369 C762.690991,247.169546 739.683706,240.705456 718.254726,228.728902 L718.254726,230.620548 C718.254726,267.496033 729.836703,299.874508 753.000659,327.773381 C776.164615,355.672253 805.398084,373.236706 840.695264,380.484146 C827.459547,383.948294 814.061357,385.68327 800.5123,385.68327 C791.686554,385.68327 782.071656,384.894117 771.673407,383.327417 C781.444975,413.895482 799.409807,439.026518 825.567901,458.726324 C851.725995,478.431934 881.354041,488.586474 914.446235,489.224759 C858.979238,532.709399 795.788988,554.457522 724.875485,554.457522 C711.320626,554.457522 699.030731,553.836644 688,552.571679 C758.913502,598.267125 837.074445,621.111917 922.48863,621.111917 C976.696464,621.111917 1027.59682,612.529901 1075.17809,595.354182 C1122.77677,578.178509 1163.42974,555.171241 1197.15442,526.326546 C1230.8733,497.493456 1259.9501,464.320025 1284.3735,426.812057 C1308.79662,389.309891 1326.99298,350.153986 1338.97533,309.338539 C1350.95247,268.51729 1356.94075,227.632212 1356.94075,186.654292 C1356.94075,177.828547 1356.7835,171.21359 1356.46435,166.797815 C1386.41212,145.061298 1411.94295,118.740731 1433.05917,87.8593253 L1433.05917,87.8593253 Z" id="icon-twitter-ghosted"></path>
            </g>
        </g>
    </g>
</svg>