<?xml version="1.0" encoding="UTF-8" standalone="no"?>
<svg width="912px" height="909px" viewBox="0 0 912 909" version="1.1" xmlns="http://www.w3.org/2000/svg" xmlns:xlink="http://www.w3.org/1999/xlink">
    <!-- Generator: Sketch 42 (36781) - http://www.bohemiancoding.com/sketch -->
    <title>icon-dragonfly-ghosted</title>
    <desc>Created with Sketch.</desc>
    <defs></defs>
    <g id="HOME---design" stroke="none" stroke-width="1" fill="none" fill-rule="evenodd" opacity="0.100000001">
        <g id="dragonflysg_design_desktop" transform="translate(-173.000000, -4197.000000)" fill="#FFFFFF">
            <g id="section-our-process" transform="translate(0.000000, 4197.000000)">
                <path d="M384.462871,345.621133 C385.762967,344.321037 387.004632,342.977117 388.275513,341.647805 C406.462255,358.563666 435.473395,364.874246 456.274937,394.498915 C464.937377,389.517647 473.789719,386.318533 482.481375,383.163243 C473.687464,377.013349 473.687464,370.585906 467.610609,364.304541 C472.854818,345.226722 460.949441,326.791647 473.117759,309.7151 C490.544894,285.130131 520.242602,293.266689 544.871394,294.493747 C548.318841,299.70874 550.831387,307.801475 558.091476,307.69922 C565.307741,298.773839 565.074016,290.082184 569.41254,281.390528 C548.888546,259.654085 526.655437,228.700104 516.56143,213.449535 C517.832311,212.105615 519.176231,210.834734 520.374072,209.636893 C523.54397,211.214538 526.655437,211.039244 530.000629,207.737876 C529.094944,236.150095 568.419208,258.456243 582.588798,283.201898 C577.198511,299.475015 565.745976,315.864994 563.788527,332.269582 C599.241718,365.911402 627.23031,318.538226 650.500575,286.897678 C656.825763,274.334949 642.115684,270.127895 654.400864,260.457515 C664.611734,258.047224 654.181747,274.831615 661.967718,271.895442 C774.141204,186.103687 808.177435,1.76754679 926.164836,0 C929.349342,3.21372144 932.621494,6.29597246 935.689137,9.39283131 C935.061001,9.90410517 934.389041,10.5614573 933.819336,11.2334172 C945.198831,56.8682617 918.27661,102.503106 892.070173,162.219894 C862.080309,231.110395 826.61251,300.512171 754.274562,345.255938 C834.559167,311.146667 912.521127,231.373336 999.627586,205.69278 C1021.70001,199.17769 1066.03476,187.097019 1080.84709,207.489543 C1106.64451,243.278713 1005.41228,327.595078 965.591355,367.795811 C946.557359,387.107356 937.383645,410.786639 914.566223,430.244262 C854.849435,481.357041 752.638486,541.716573 707.032857,501.968682 C680.08142,478.552338 688.480919,434.962589 652.443416,435.999745 C673.873095,446.590418 671.827999,474.316069 688.115724,494.445652 C696.909634,505.138579 710.714029,511.186219 722.181171,520.754344 C757.356813,550.408228 790.428928,589.265042 825.838295,624.499115 C890.594782,688.963446 957.440189,750.520819 999.33543,813.013094 C996.223963,816.212207 992.864163,819.498968 989.927991,822.478964 C968.702821,816.416717 959.572931,798.565955 940.8457,781.051173 C866.886283,711.63479 759.664849,621.153924 699.539043,547.296762 C689.810231,535.28913 684.200827,518.344053 673.09888,509.593966 C653.042337,493.627614 622.950218,496.037905 610.942586,477.515183 C630.546286,520.1116 656.44596,505.679069 678.781324,530.220215 C692.001405,544.901078 690.978857,573.751532 686.172883,594.45082 C676.969954,634.534691 639.603138,699.539511 605.216318,739.725637 C585.700265,762.382373 562.56147,771.044813 542.840907,790.706945 C498.623021,834.209047 422.34096,931.49716 384.214538,903.990626 C358.811531,885.70163 376.852194,832.499932 384.214538,809.594863 C408.098331,736.468092 490.983129,654.664274 516.459175,583.246618 C474.59315,648.499771 410.844602,686.962174 348.250073,713.44616 C284.954369,740.353773 241.116287,766.96923 186.322336,758.84728 C181.808518,754.362677 177.353132,750.082585 173,745.671022 C196.518598,617.808732 360.053196,602.967182 442.937993,487.010269 C445.698872,481.868315 427.964973,486.177623 439.154567,475.645381 C457.721112,485.008997 490.062836,449.205219 514.618589,437.869547 C518.971721,420.880646 522.974265,403.964785 508.994577,386.975885 C491.479795,389.415392 473.789719,405.571646 456.274937,405.805371 C440.892898,387.311865 399.84491,361.236898 384.462871,345.621133" id="icon-dragonfly-ghosted"></path>
            </g>
        </g>
    </g>
</svg>