<?xml version="1.0" encoding="UTF-8" standalone="no"?>
<svg width="68px" height="48px" viewBox="0 0 68 48" version="1.1" xmlns="http://www.w3.org/2000/svg" xmlns:xlink="http://www.w3.org/1999/xlink">
    <!-- Generator: Sketch 42 (36781) - http://www.bohemiancoding.com/sketch -->
    <title>icon-quote-open</title>
    <desc>Created with Sketch.</desc>
    <defs></defs>
    <g id="HOME---design" stroke="none" stroke-width="1" fill="none" fill-rule="evenodd">
        <g id="dragonflysg_design_desktop" transform="translate(-324.000000, -6229.000000)" fill="#F7925F">
            <g id="section-testimonials" transform="translate(-4.000000, 5916.000000)">
                <path d="M395.894737,346.631579 C395.894737,350.736863 394.578961,354.157881 391.947368,356.894737 C389.315776,359.631593 385.894758,361 381.684211,361 C376.52629,361 372.28949,359.078967 368.973684,355.236842 C365.657878,351.394718 364,346.789501 364,341.421053 C364,333.63154 366.894708,326.947396 372.684211,321.368421 C378.473713,315.789446 385.473643,313 393.684211,313 L394,315.210526 C388.947343,315.210526 384.315811,316.999982 380.105263,320.578947 C375.894716,324.157913 373.789474,328.263135 373.789474,332.894737 C373.789474,333.947374 373.921051,334.736839 374.184211,335.263158 C374.44737,335.789476 374.842103,336.052632 375.368421,336.052632 C376.105267,336.052632 377.236834,335.71053 378.763158,335.026316 C380.289481,334.342102 381.578942,334 382.631579,334 C386.105281,334 389.184197,335.184199 391.868421,337.552632 C394.552645,339.921064 395.894737,342.94735 395.894737,346.631579 Z M359.894737,346.631579 C359.894737,350.736863 358.578961,354.157881 355.947368,356.894737 C353.315776,359.631593 349.894758,361 345.684211,361 C340.52629,361 336.28949,359.078967 332.973684,355.236842 C329.657878,351.394718 328,346.789501 328,341.421053 C328,333.63154 330.894708,326.947396 336.684211,321.368421 C342.473713,315.789446 349.473643,313 357.684211,313 L358,315.210526 C352.947343,315.210526 348.315811,316.999982 344.105263,320.578947 C339.894716,324.157913 337.789474,328.263135 337.789474,332.894737 C337.789474,333.947374 337.921051,334.736839 338.184211,335.263158 C338.44737,335.789476 338.842103,336.052632 339.368421,336.052632 C340.105267,336.052632 341.236834,335.71053 342.763158,335.026316 C344.289481,334.342102 345.578942,334 346.631579,334 C350.105281,334 353.184197,335.184199 355.868421,337.552632 C358.552645,339.921064 359.894737,342.94735 359.894737,346.631579 Z" id="icon-quote-open"></path>
            </g>
        </g>
    </g>
</svg>