<?xml version="1.0" encoding="utf-8"?>
<!-- Generator: Adobe Illustrator 22.1.0, SVG Export Plug-In . SVG Version: 6.00 Build 0)  -->
<svg version="1.1" id="Layer_1" xmlns="http://www.w3.org/2000/svg" xmlns:xlink="http://www.w3.org/1999/xlink" x="0px" y="0px"
	 viewBox="0 0 220 90" style="enable-background:new 0 0 220 90;" xml:space="preserve">
<style type="text/css">
	.st0{fill:#0063C6;}
	.st1{fill:#FA0000;}
</style>
<g id="reimage_x5F_america_x5F_logo_x5F_stacked_x5F_color">
	<g>
		<path class="st0" d="M27.1,78H13.4l-4.1,7.6H2l19.5-34.5h7.9L35,85.6h-6.7L27.1,78z M26.2,72.3l-2-13.9l-8.3,13.9H26.2z"/>
		<path class="st0" d="M53.8,85.6H48l-1.1-24.8l-4.7,24.8h-5.5l6.2-29.7h8.7l0.9,20.8l10.1-20.8h8.8l-6.2,29.7h-5.6L65.5,61
			L53.8,85.6z"/>
		<path class="st0" d="M71.2,85.6l6.2-29.7h22l-1,5H82.5l-1.4,6.7h15.4l-1,5H80.1l-1.9,8.1h17.3l-1.1,5H71.2z"/>
		<path class="st0" d="M104.9,85.6h-6.1l6.2-29.7h13.2c2.3,0,4,0.2,5.3,0.7c1.3,0.5,2.3,1.3,3.1,2.6c0.8,1.2,1.2,2.7,1.2,4.5
			c0,2.5-0.8,4.6-2.3,6.3c-1.5,1.6-3.8,2.7-6.9,3.1c0.8,0.7,1.5,1.6,2.2,2.8c1.4,2.3,2.9,5.6,4.6,9.9h-6.6c-0.5-1.7-1.6-4.3-3.1-7.8
			c-0.8-1.9-1.7-3.2-2.7-3.9c-0.6-0.4-1.6-0.6-3-0.6h-2.5L104.9,85.6z M108.4,68.9h3.2c3.3,0,5.5-0.2,6.5-0.6c1.1-0.4,1.9-1,2.5-1.8
			c0.6-0.8,0.9-1.7,0.9-2.6c0-1.1-0.4-1.9-1.3-2.4c-0.5-0.3-1.7-0.5-3.5-0.5h-6.7L108.4,68.9z"/>
		<path class="st0" d="M128.2,85.6l6.2-29.7h6.1l-6.2,29.7H128.2z"/>
		<path class="st0" d="M161.1,74.4l6.2,0.9c-1.2,3.3-3,5.9-5.4,7.7c-2.4,1.8-5.2,2.6-8.5,2.6c-3.6,0-6.5-1.1-8.5-3.3
			c-2-2.2-3.1-5.4-3.1-9.5c0-3.4,0.7-6.5,2.1-9.3c1.4-2.8,3.3-4.9,5.7-6.4c2.4-1.5,5.1-2.2,7.9-2.2c3.2,0,5.8,0.9,7.8,2.6
			c2,1.7,3.2,4.1,3.5,7l-5.9,0.6c-0.3-1.7-0.9-3-1.9-3.8c-0.9-0.8-2.2-1.2-3.7-1.2c-1.7,0-3.3,0.5-4.7,1.5c-1.5,1-2.6,2.6-3.5,4.8
			c-0.9,2.2-1.3,4.4-1.3,6.5c0,2.4,0.6,4.2,1.7,5.5c1.1,1.3,2.6,1.9,4.3,1.9c1.6,0,3-0.5,4.3-1.5C159.5,77.9,160.5,76.4,161.1,74.4z
			"/>
		<path class="st0" d="M187.5,79.1h-11.8l-3.6,6.6h-6.3l16.8-29.7h6.8l4.8,29.7h-5.8L187.5,79.1z M186.7,74.1l-1.7-12l-7.2,12H186.7
			z"/>
	</g>
	<g>
		<path class="st1" d="M12.3,38.9H5.7c-0.2,0-0.3-0.1-0.2-0.3l7.1-34c0-0.1,0.1-0.2,0.2-0.2H28c2.6,0,4.7,0.3,6.2,0.8
			c1.5,0.5,2.7,1.5,3.6,3c0.9,1.4,1.4,3.2,1.4,5.3c0,2.9-0.9,5.4-2.6,7.3c-1.7,1.8-4.2,3-7.5,3.5c-0.2,0-0.3,0.3-0.1,0.4
			c0.8,0.8,2.6,3.7,3.2,4.9c1.4,2.9,2.1,5,5,11.1c0.9,1.8,2.1,3.6,5.5,3.6h162.2v7.5H63.1c0,0-21.3,0-21.3,0c-5.8,0-9-3.6-10.5-6.8
			c-1.4-3.1-4.8-12.3-5.7-14.3c-1.1-2.5-2.5-4.5-3.6-5.2c-0.7-0.5-1.9-0.7-3.5-0.7h-2.7c-0.1,0-0.2,0.1-0.2,0.2l-2.9,13.9
			C12.5,38.9,12.4,38.9,12.3,38.9z M16.6,19.4h3.8c3.8,0,6.4-0.2,7.6-0.7c1.2-0.5,2.2-1.2,2.9-2.1c0.7-1,1.1-2,1.1-3.1
			c0-1.3-0.5-2.2-1.5-2.8c-0.6-0.4-2-0.6-4.1-0.6h-7.8L16.6,19.4z"/>
		<path class="st1" d="M38.8,39L45,9.3h22l-1,5H50.1L48.7,21h15.4l-1,5H47.6L45.8,34h17.3L62,39H38.8z"/>
		<path class="st1" d="M66.9,39l6.2-29.7h6.1L73,39H66.9z"/>
		<path class="st1" d="M95.9,39h-5.8l-1.1-24.8L84.3,39h-5.5L85,9.3h8.7l0.9,20.8l10.1-20.8h8.8L107.4,39h-5.6l5.9-24.6L95.9,39z"/>
		<path class="st1" d="M132.7,32.4h-11.8l-3.6,6.6H111l16.8-29.7h6.8l4.8,29.7h-5.8L132.7,32.4z M131.9,27.5l-1.7-12l-7.2,12H131.9z
			"/>
		<path class="st1" d="M156.8,23.1h13.3l-2.7,12.7c-1.6,1-3.5,1.9-5.8,2.6c-2.3,0.7-4.6,1.1-7,1.1c-3.7,0-6.5-0.8-8.5-2.5
			c-2.7-2.3-4-5.6-4-9.9c0-2.9,0.6-5.7,1.7-8.3c1.4-3.2,3.3-5.7,5.9-7.4c2.5-1.8,5.5-2.6,9-2.6c3.4,0,6.2,0.8,8.3,2.4
			c2.1,1.6,3.4,3.9,4.1,7l-5.7,0.6c-0.5-1.7-1.3-2.9-2.4-3.8c-1.1-0.9-2.5-1.3-4.2-1.3c-2,0-3.8,0.5-5.4,1.5c-1.6,1-2.9,2.6-3.9,4.8
			c-0.9,2.1-1.4,4.5-1.4,7c0,2.5,0.6,4.3,1.7,5.5c1.1,1.2,2.8,1.8,5,1.8c1.3,0,2.7-0.2,4-0.6c1.4-0.4,2.6-0.8,3.6-1.3l0.9-4.4h-7.6
			L156.8,23.1z"/>
		<path class="st1" d="M172.1,39l6.2-29.7h22l-1,5h-15.9L182,21h15.4l-1,5H181l-1.9,8.1h17.3l-1.1,5H172.1z"/>
		<polygon class="st1" points="204.5,44.8 202.4,32.4 218,48 202.4,63.7 204.5,51.3 		"/>
	</g>
</g>
</svg>
