<svg height="305" viewBox="0 0 622 305" width="622" xmlns="http://www.w3.org/2000/svg"><g fill="none" fill-rule="evenodd" transform="translate(0 -1)"><path d="m84.1162 234.9157 17.896 70.084zm140.623-234.392-224.308 213.051h60.672c.401-1.89 1.113-3.751 2.152-5.508 5.137-8.686 16.342-11.562 25.028-6.425l-.009.015c.451.267.887.551 1.307.849z" fill="#e4e5e4" transform="translate(202 .476)"/><path d="m140.7392.5236-135.158 201.982c7.656 5.446 9.989 15.945 5.119 24.179-2.027 3.429-5.001 5.952-8.391 7.434-.737.322-1.451.559-2.2.766l17.902 70.115z" fill="#cac9c9" transform="translate(286 .476)"/><path d="m0 214.0509h263.103c.401-1.891 1.113-3.751 2.152-5.508 5.138-8.686 16.342-11.562 25.028-6.426l-.009.016-3.03 5.124c-5.848-3.458-13.391-1.521-16.849 4.326-1.178 1.991-1.73 4.179-1.715 6.335.029 4.176 2.184 8.234 6.04 10.514 2.847 1.683 6.096 2.089 9.08 1.386l1.589 5.731c-4.734 1.181-9.303.513-13.709-1.977-4.588-2.713-7.555-7.121-8.576-11.955h-255.728z" fill="#ac2b30"/><path d="m584.4394 102.2823c5.427 0 10.437.925 15.028 2.743 4.591 1.819 8.558 4.443 11.897 7.872 3.34 3.429 5.964 7.693 7.842 12.732 1.879 5.039 2.802 10.794 2.802 17.263 0 2.505-.268 4.175-.804 5.01-.537.835-1.55 1.253-3.041 1.253h-60.29c.119 5.724.894 10.733 2.325 14.967 1.431 4.264 3.399 7.783 5.904 10.645 2.504 2.832 5.486 4.95 8.945 6.351 3.459 1.402 7.335 2.117 11.628 2.117 3.995 0 7.454-.477 10.347-1.401 2.893-.925 5.367-1.939 7.454-3.012s3.847-2.057 5.248-2.981c1.402-.955 2.594-1.402 3.608-1.402 1.312 0 2.326.507 3.042 1.521l4.472 5.844c-1.968 2.355-4.323 4.413-7.067 6.172-2.743 1.759-5.665 3.191-8.796 4.324-3.131 1.102-6.381 1.967-9.72 2.534-3.34.567-6.649.835-9.929.835-6.261 0-12.016-1.074-17.294-3.191s-9.84-5.218-13.686-9.302c-3.846-4.085-6.858-9.154-9.005-15.178-2.146-6.022-3.221-12.94-3.221-20.782 0-6.321.985-12.225 2.923-17.711s4.711-10.257 8.349-14.283c3.638-4.025 8.08-7.185 13.328-9.481s11.151-3.459 17.711-3.459m.357 11.808c-7.692 0-13.745 2.206-18.158 6.649-4.412 4.413-7.155 10.555-8.229 18.397h49.288c0-3.698-.508-7.066-1.522-10.108-1.013-3.071-2.504-5.725-4.472-7.932-1.968-2.235-4.353-3.965-7.186-5.188-2.832-1.222-6.082-1.818-9.721-1.818" fill="#074b78"/><path d="m116.2539 114.0899c-7.692 0-13.745 2.207-18.158 6.649-4.413 4.414-7.156 10.556-8.23 18.397h49.288c0-3.697-.507-7.066-1.521-10.108-1.014-3.071-2.505-5.725-4.473-7.931-1.968-2.236-4.353-3.965-7.185-5.188-2.833-1.222-6.083-1.819-9.721-1.819zm-.358-11.808c5.427 0 10.437.925 15.028 2.744 4.592 1.818 8.558 4.442 11.897 7.871 3.34 3.429 5.963 7.693 7.842 12.733 1.879 5.038 2.802 10.793 2.802 17.263 0 2.505-.268 4.175-.804 5.01-.537.834-1.551 1.252-3.041 1.252h-60.291c.12 5.724.895 10.734 2.326 14.968 1.432 4.264 3.399 7.782 5.904 10.644 2.505 2.833 5.487 4.95 8.945 6.351 3.459 1.402 7.335 2.118 11.628 2.118 3.996 0 7.455-.478 10.347-1.402 2.893-.925 5.367-1.938 7.455-3.012 2.087-1.073 3.846-2.057 5.247-2.981 1.402-.954 2.594-1.401 3.608-1.401 1.312 0 2.326.506 3.041 1.52l4.473 5.844c-1.968 2.356-4.323 4.413-7.067 6.172-2.743 1.76-5.665 3.191-8.796 4.324-3.131 1.103-6.381 1.968-9.72 2.534-3.34.568-6.649.835-9.929.835-6.262 0-12.016-1.073-17.294-3.19-5.278-2.118-9.84-5.219-13.686-9.303-3.846-4.085-6.858-9.154-9.005-15.177-2.146-6.023-3.22-12.941-3.22-20.783 0-6.321.984-12.224 2.922-17.711 1.938-5.486 4.711-10.256 8.349-14.282s8.08-7.186 13.328-9.482 11.152-3.459 17.711-3.459zm-107.967 92.135v-90.703h9.125c1.729 0 2.922.357 3.577 1.043.656.686 1.103 1.909 1.342 3.608l1.073 15.028c3.102-6.709 6.948-11.927 11.51-15.654 4.562-3.756 9.899-5.635 16.041-5.635 2.505 0 4.771.298 6.799.864 2.027.597 3.905 1.402 5.635 2.445l-2.057 11.897c-.418 1.491-1.342 2.236-2.773 2.236-.835 0-2.117-.297-3.846-.864-1.73-.567-4.145-.835-7.246-.835-5.546 0-10.168 1.67-13.895 5.039-3.727 3.37-6.857 8.259-9.362 14.67v56.861z" fill="#ac2b30"/><g fill="#074b78"><path d="m436.3193 194.4171h-7.067c-1.551 0-2.803-.239-3.757-.716-.954-.476-1.58-1.52-1.878-3.071l-1.789-8.438c-2.386 2.146-4.711 4.084-6.978 5.785-2.265 1.729-4.651 3.16-7.156 4.323s-5.157 2.056-7.99 2.653-5.994.895-9.453.895c-3.518 0-6.798-.507-9.869-1.492-3.071-.983-5.754-2.474-8.021-4.441-2.266-1.968-4.055-4.473-5.396-7.515-1.343-3.011-2.028-6.589-2.028-10.733 0-3.608.984-7.067 2.951-10.377 1.968-3.339 5.159-6.291 9.542-8.885 4.383-2.565 10.108-4.682 17.204-6.321 7.097-1.641 15.774-2.476 26.031-2.476v-7.126c0-7.066-1.492-12.433-4.502-16.041-3.013-3.638-7.485-5.457-13.388-5.457-3.877 0-7.127.477-9.78 1.461-2.655.984-4.949 2.087-6.888 3.31-1.938 1.223-3.607 2.326-5.009 3.31s-2.803 1.491-4.175 1.491c-1.074 0-1.998-.268-2.803-.836-.805-.566-1.46-1.252-1.938-2.087l-2.862-5.009c5.01-4.86 10.406-8.498 16.19-10.913 5.786-2.415 12.196-3.607 19.233-3.607 5.068 0 9.57.834 13.507 2.504 3.935 1.67 7.245 3.995 9.928 6.977 2.684 2.982 4.711 6.59 6.083 10.853 1.371 4.235 2.058 8.886 2.058 13.955zm-41.326-9.84c2.803 0 5.367-.268 7.692-.835 2.326-.567 4.532-1.342 6.589-2.385 2.058-1.014 4.025-2.266 5.904-3.757 1.879-1.461 3.698-3.131 5.487-5.009v-18.785c-7.335 0-13.567.477-18.696 1.402-5.128.923-9.302 2.117-12.522 3.637-3.221 1.491-5.546 3.25-7.008 5.278-1.461 2.027-2.206 4.294-2.206 6.828 0 2.385.388 4.442 1.163 6.172.776 1.729 1.819 3.16 3.131 4.264 1.312 1.103 2.862 1.908 4.651 2.415 1.788.507 3.727.775 5.815.775z"/><path d="m219.5698 194.4171v-90.704h9.482c2.266 0 3.697 1.104 4.293 3.31l1.163 9.333c3.34-4.145 7.097-7.514 11.242-10.138 4.144-2.623 8.944-3.936 14.431-3.936 6.142 0 11.121 1.7 14.909 5.099 3.786 3.399 6.499 7.991 8.169 13.805 1.252-3.28 2.922-6.142 4.979-8.527 2.058-2.386 4.353-4.354 6.918-5.904 2.564-1.55 5.307-2.684 8.2-3.399 2.892-.716 5.814-1.074 8.796-1.074 4.77 0 9.035.776 12.761 2.296 3.727 1.521 6.888 3.727 9.483 6.65 2.592 2.921 4.561 6.529 5.932 10.793 1.372 4.264 2.058 9.154 2.058 14.64v57.756h-15.922v-57.756c0-7.096-1.551-12.493-4.651-16.161-3.102-3.667-7.604-5.516-13.508-5.516-2.623 0-5.099.477-7.454 1.402-2.356.924-4.443 2.266-6.232 4.055-1.789 1.788-3.19 4.055-4.234 6.768-1.043 2.714-1.58 5.874-1.58 9.452v54.08c-2.371-.65-4.865-.999-7.443-.999-2.955 0-5.803.458-8.479 1.303v-54.384c0-7.275-1.461-12.731-4.383-16.309-2.922-3.579-7.186-5.368-12.792-5.368-3.936 0-7.574 1.074-10.943 3.191s-6.47 5.01-9.273 8.646v67.596z"/><path d="m195.0605 75.2686c0 1.55-.298 2.981-.924 4.323s-1.461 2.535-2.505 3.578c-1.044 1.044-2.266 1.879-3.638 2.474-1.371.598-2.832.896-4.383.896-1.55 0-2.982-.298-4.323-.896-1.342-.595-2.535-1.43-3.578-2.474-1.044-1.043-1.878-2.236-2.475-3.578-.596-1.342-.894-2.773-.894-4.323 0-1.551.298-3.042.894-4.443.597-1.401 1.431-2.624 2.475-3.668 1.043-1.043 2.236-1.848 3.578-2.445 1.341-.596 2.773-.894 4.323-.894 1.551 0 3.012.298 4.383.894 1.372.597 2.594 1.402 3.638 2.445 1.044 1.044 1.879 2.267 2.505 3.668s.924 2.892.924 4.443"/><path d="m175.56 194.417h15.922v-90.704h-15.922z"/><path d="m259.8784 244.0138c-.098.181-.25.271-.456.271-.123 0-.263-.045-.419-.136-.156-.09-.345-.193-.57-.304-.226-.11-.498-.214-.81-.308s-.682-.139-1.109-.139c-.369 0-.702.045-.998.139s-.546.226-.756.39c-.209.165-.369.354-.48.571-.111.218-.169.456-.169.711 0 .321.095.587.28.801.184.214.427.399.731.555.304.155.649.292 1.035.411.386.118.784.246 1.191.381.407.136.801.288 1.187.452s.731.37 1.035.616.551.547.735.904c.185.357.276.789.276 1.289 0 .576-.103 1.106-.308 1.594-.206.49-.51.912-.912 1.27-.403.357-.896.64-1.479.845-.584.207-1.257.309-2.021.309-.871 0-1.659-.14-2.366-.419-.706-.279-1.306-.637-1.799-1.072l.517-.859c.066-.106.144-.189.235-.251.09-.057.209-.085.357-.085s.304.057.468.172c.165.115.366.243.6.382.234.14.518.267.85.382.333.115.748.173 1.249.173.427 0 .801-.058 1.121-.169.321-.11.588-.259.801-.447.214-.19.374-.408.477-.654s.152-.513.152-.793c0-.344-.09-.628-.275-.854s-.432-.419-.736-.579c-.304-.164-.649-.304-1.039-.423s-.788-.242-1.195-.374c-.407-.131-.805-.283-1.195-.451-.391-.169-.74-.378-1.044-.633s-.546-.571-.731-.945c-.185-.373-.279-.829-.279-1.364 0-.476.098-.936.295-1.376.198-.439.485-.825.863-1.158s.842-.599 1.393-.797c.55-.197 1.178-.296 1.885-.296.822 0 1.561.132 2.214.391.653.263 1.216.62 1.692 1.076zm-17.079 10.425v-12.495h1.257c.238 0 .403.049.493.143.09.095.152.263.185.497l.148 2.071c.427-.924.957-1.644 1.585-2.157.629-.517 1.364-.776 2.21-.776.345 0 .657.041.937.119.279.082.537.194.776.337l-.283 1.639c-.058.205-.186.307-.382.307-.116 0-.292-.041-.53-.119-.239-.078-.571-.115-.999-.115-.764 0-1.401.23-1.914.694-.513.465-.945 1.138-1.289 2.022v7.833zm-8.651-1.54c1.233 0 2.153-.415 2.761-1.241s.912-1.98.912-3.463c0-1.487-.304-2.645-.912-3.479-.608-.83-1.528-1.244-2.761-1.244-.624 0-1.166.106-1.626.32-.46.213-.842.522-1.15.924s-.538.9-.69 1.487-.23 1.252-.23 1.992.078 1.405.23 1.988.382 1.076.69 1.475.69.703 1.15.92c.46.213 1.002.321 1.626.321zm0-11.14c.913 0 1.738.151 2.473.455.736.305 1.36.736 1.874 1.295.513.558.907 1.232 1.182 2.025.276.793.411 1.679.411 2.657 0 .986-.135 1.874-.411 2.662-.275.789-.669 1.462-1.182 2.02-.514.559-1.138.987-1.874 1.287-.735.299-1.56.452-2.473.452-.911 0-1.733-.153-2.468-.452-.735-.3-1.364-.728-1.881-1.287-.518-.558-.916-1.231-1.195-2.02-.28-.788-.419-1.676-.419-2.662 0-.978.139-1.864.419-2.657.279-.793.677-1.467 1.195-2.025.517-.559 1.146-.99 1.881-1.295.735-.304 1.557-.455 2.468-.455zm-10.461 12.877c-.986 0-1.742-.275-2.272-.826-.53-.55-.797-1.343-.797-2.382v-7.644h-1.503c-.132 0-.242-.041-.333-.12-.09-.078-.135-.197-.135-.361v-.879l2.045-.259.505-3.856c.017-.124.071-.227.16-.305.091-.078.206-.114.346-.114h1.109v4.3h3.573v1.594h-3.573v7.501c0 .525.127.916.382 1.169.254.255.583.383.986.383.23 0 .431-.033.599-.094.169-.062.312-.128.436-.202.123-.074.23-.144.316-.206.086-.061.16-.09.226-.09.115 0 .218.07.308.214l.641 1.06c-.378.349-.834.62-1.368.821-.534.197-1.085.296-1.651.296zm-7.16-16.611c0 .214-.041.411-.127.595-.086.185-.201.35-.345.494-.144.143-.312.258-.501.34s-.39.123-.604.123-.41-.041-.595-.123-.35-.197-.493-.34c-.144-.144-.259-.309-.341-.494-.082-.184-.123-.381-.123-.595s.041-.419.123-.612.197-.362.341-.505c.143-.144.308-.255.493-.337s.381-.123.595-.123.415.041.604.123.357.193.501.337c.144.143.259.312.345.505s.127.398.127.612zm-2.686 16.414h2.193v-12.495h-2.193zm-9.488-1.602c.714 0 1.343-.165 1.881-.493.538-.329 1.031-.793 1.483-1.393v-6.045c-.403-.543-.842-.925-1.323-1.143-.48-.218-1.015-.328-1.598-.328-1.166 0-2.062.414-2.686 1.248-.625.83-.937 2.013-.937 3.554 0 .812.07 1.511.21 2.09.14.58.345 1.056.616 1.429.271.374.604.65.998.822.395.172.846.259 1.356.259zm4.251 1.602c-.312 0-.509-.153-.592-.456l-.197-1.516c-.534.65-1.142 1.167-1.827 1.557-.686.39-1.475.588-2.362.588-.715 0-1.364-.14-1.947-.415-.584-.276-1.081-.678-1.491-1.212-.411-.538-.727-1.203-.949-2.001-.222-.797-.333-1.712-.333-2.752 0-.92.123-1.775.37-2.572.247-.792.603-1.478 1.068-2.065.464-.584 1.027-1.039 1.692-1.372s1.421-.501 2.267-.501c.764 0 1.418.131 1.959.39.543.258 1.028.62 1.455 1.089v-6.926h2.193v18.164zm-20.591-12.495v7.968c0 .945.218 1.68.653 2.198.435.517 1.093.776 1.972.776.64 0 1.244-.152 1.811-.456s1.089-.727 1.565-1.269v-9.217h2.194v12.495h-1.307c-.312 0-.509-.153-.591-.456l-.173-1.343c-.542.6-1.15 1.08-1.823 1.445-.674.366-1.446.551-2.317.551-.682 0-1.282-.115-1.803-.341-.522-.226-.962-.543-1.315-.953-.353-.411-.616-.912-.793-1.495-.176-.583-.267-1.229-.267-1.935v-7.968zm-10.918 11.139c.387 0 .74-.037 1.06-.115.321-.078.624-.184.908-.328.283-.141.554-.313.813-.518.259-.202.509-.431.756-.69v-2.588c-1.011 0-1.869.066-2.576.193-.706.127-1.281.292-1.725.501-.443.205-.764.448-.965.728-.201.278-.304.591-.304.94 0 .329.053.612.16.851.107.237.251.435.431.587.181.151.395.263.641.332.247.07.514.107.801.107zm5.693 1.356h-.973c-.214 0-.387-.033-.518-.099-.131-.065-.217-.21-.258-.423l-.247-1.163c-.329.296-.649.564-.961.797-.312.238-.641.436-.986.596s-.711.284-1.101.366-.825.123-1.302.123c-.485 0-.937-.07-1.36-.205-.423-.136-.792-.342-1.104-.612-.313-.272-.559-.617-.744-1.035-.185-.416-.279-.909-.279-1.479 0-.497.135-.974.406-1.43.271-.46.711-.866 1.315-1.223.604-.354 1.392-.646 2.37-.871.977-.226 2.173-.341 3.586-.341v-.983c0-.972-.206-1.713-.621-2.209-.414-.502-1.03-.752-1.844-.752-.534 0-.981.066-1.347.202-.366.135-.682.287-.949.456-.267.168-.497.32-.69.456-.193.134-.386.205-.575.205-.148 0-.275-.037-.386-.115-.111-.079-.201-.173-.267-.288l-.394-.69c.69-.67 1.433-1.171 2.23-1.503.797-.333 1.68-.497 2.649-.497.699 0 1.319.114 1.861.345.542.23.998.551 1.368.961.37.411.648.908.838 1.495.188.584.283 1.224.283 1.923zm-23.166-1.602c.714 0 1.343-.165 1.881-.493.538-.329 1.031-.793 1.483-1.393v-6.045c-.403-.543-.842-.925-1.323-1.143-.48-.218-1.015-.328-1.598-.328-1.167 0-2.062.414-2.686 1.248-.625.83-.937 2.013-.937 3.554 0 .812.07 1.511.21 2.09.14.58.345 1.056.616 1.429.271.374.604.65.998.822.395.172.846.259 1.356.259zm4.251 1.602c-.312 0-.509-.153-.592-.456l-.196-1.516c-.535.65-1.143 1.167-1.829 1.557s-1.474.588-2.361.588c-.715 0-1.364-.14-1.947-.415-.584-.276-1.081-.678-1.491-1.212-.411-.538-.727-1.203-.949-2.001-.222-.797-.333-1.712-.333-2.752 0-.92.123-1.775.369-2.572.247-.792.604-1.478 1.069-2.065.464-.584 1.027-1.039 1.692-1.372s1.421-.501 2.267-.501c.764 0 1.418.131 1.96.39.542.258 1.027.62 1.454 1.089v-6.926h2.193v18.164zm-22.489 0v-12.495h1.306c.312 0 .51.151.592.456l.173 1.359c.542-.603 1.15-1.089 1.819-1.458.669-.37 1.442-.555 2.321-.555.682 0 1.285.116 1.807.341.522.226.957.546 1.306.961.35.415.612.916.793 1.5.181.583.271 1.228.271 1.935v7.956h-2.193v-7.956c0-.946-.214-1.681-.645-2.202-.432-.522-1.093-.785-1.98-.785-.649 0-1.253.157-1.815.468-.563.313-1.085.74-1.561 1.274v9.201zm-9.02-1.356c.387 0 .74-.037 1.06-.115s.624-.184.908-.328c.283-.141.554-.313.813-.518.259-.202.509-.431.756-.69v-2.588c-1.011 0-1.869.066-2.576.193-.706.127-1.281.292-1.725.501-.443.205-.764.448-.965.728-.201.278-.304.591-.304.94 0 .329.053.612.16.851.107.237.251.435.431.587.181.151.395.263.641.332.247.07.514.107.801.107zm5.693 1.356h-.973c-.214 0-.387-.033-.518-.099-.131-.065-.217-.21-.258-.423l-.247-1.163c-.329.296-.649.564-.961.797-.312.238-.641.436-.986.596s-.711.284-1.101.366-.825.123-1.302.123c-.484 0-.937-.07-1.36-.205-.423-.136-.792-.342-1.104-.612-.313-.272-.559-.617-.744-1.035-.185-.416-.279-.909-.279-1.479 0-.497.135-.974.406-1.43.271-.46.711-.866 1.315-1.223.603-.354 1.392-.646 2.37-.871.978-.226 2.173-.341 3.586-.341v-.983c0-.972-.206-1.713-.621-2.209-.414-.502-1.03-.752-1.844-.752-.534 0-.981.066-1.347.202-.366.135-.682.287-.949.456-.267.168-.497.32-.69.456-.193.134-.386.205-.575.205-.148 0-.275-.037-.386-.115-.111-.079-.201-.173-.267-.288l-.395-.69c.691-.67 1.434-1.171 2.231-1.503.797-.333 1.68-.497 2.649-.497.699 0 1.319.114 1.861.345.542.23.998.551 1.368.961.37.411.649.908.838 1.495.188.584.283 1.224.283 1.923zm-18.632 0v-12.495h1.257c.238 0 .403.049.493.143.091.095.152.263.185.497l.148 2.071c.427-.924.957-1.644 1.585-2.157.629-.517 1.364-.776 2.21-.776.345 0 .658.041.937.119.279.082.538.194.776.337l-.284 1.639c-.057.205-.184.307-.381.307-.115 0-.292-.041-.53-.119s-.571-.115-.998-.115c-.764 0-1.401.23-1.914.694-.514.465-.945 1.138-1.29 2.022v7.833zm-8.132-10.943c-.715 0-1.339.172-1.877.522-.539.345-1.036.838-1.488 1.471v5.951c.395.534.834.912 1.315 1.13.48.217 1.014.329 1.606.329 1.166 0 2.062-.415 2.686-1.245.625-.83.937-2.013.937-3.549 0-.814-.07-1.512-.214-2.095s-.353-1.064-.624-1.437c-.271-.374-.604-.646-.998-.818-.395-.173-.842-.259-1.343-.259zm-5.57 10.943v-18.164h2.205v7.599c.518-.636 1.114-1.154 1.783-1.545.67-.389 1.434-.583 2.296-.583.723 0 1.376.136 1.959.407.584.271 1.081.677 1.492 1.215.41.539.727 1.205.948 1.997.222.797.333 1.709.333 2.744 0 .925-.123 1.779-.37 2.576-.246.792-.599 1.478-1.063 2.058-.465.579-1.032 1.035-1.701 1.368-.669.332-1.425.501-2.263.501-.805 0-1.487-.157-2.05-.473-.562-.312-1.056-.752-1.475-1.314l-.11 1.141c-.066.317-.255.473-.567.473zm-10.893 0h2.193v-18.164h-2.193zm-9.267-1.356c.386 0 .739-.037 1.06-.115.32-.078.624-.184.908-.328.283-.141.554-.313.813-.518.259-.202.509-.431.756-.69v-2.588c-1.011 0-1.869.066-2.576.193s-1.281.292-1.725.501c-.443.205-.764.448-.965.728-.202.278-.304.591-.304.94 0 .329.053.612.16.851.107.237.25.435.431.587.181.151.395.263.641.332.247.07.513.107.801.107zm5.693 1.356h-.974c-.213 0-.385-.033-.517-.099-.131-.065-.218-.21-.259-.423l-.246-1.163c-.329.296-.649.564-.962.797-.312.238-.64.436-.985.596s-.711.284-1.101.366-.826.123-1.302.123c-.485 0-.937-.07-1.36-.205-.423-.136-.793-.342-1.105-.612-.312-.272-.558-.617-.743-1.035-.185-.416-.28-.909-.28-1.479 0-.497.136-.974.407-1.43.271-.46.711-.866 1.315-1.223.604-.354 1.392-.646 2.37-.871.977-.226 2.173-.341 3.586-.341v-.983c0-.972-.206-1.713-.62-2.209-.415-.502-1.032-.752-1.845-.752-.534 0-.982.066-1.347.202-.366.135-.682.287-.949.456-.267.168-.497.32-.69.456-.193.134-.386.205-.575.205-.148 0-.275-.037-.386-.115-.111-.079-.202-.173-.267-.288l-.395-.69c.69-.67 1.434-1.171 2.231-1.503.797-.333 1.68-.497 2.649-.497.699 0 1.319.114 1.861.345.542.23.998.551 1.368.961.369.411.649.908.838 1.495.189.584.283 1.224.283 1.923zm-22.871 0v-12.495h1.306c.312 0 .51.151.592.456l.173 1.359c.542-.603 1.15-1.089 1.819-1.458.669-.37 1.442-.555 2.321-.555.682 0 1.285.116 1.807.341.522.226.957.546 1.307.961.349.415.611.916.792 1.5.181.583.271 1.228.271 1.935v7.956h-2.193v-7.956c0-.946-.214-1.681-.645-2.202-.432-.522-1.093-.785-1.98-.785-.649 0-1.253.157-1.815.468-.563.313-1.085.74-1.561 1.274v9.201zm-8.65-1.54c1.232 0 2.152-.415 2.76-1.241s.912-1.98.912-3.463c0-1.487-.304-2.645-.912-3.479-.608-.83-1.528-1.244-2.76-1.244-.624 0-1.167.106-1.627.32-.46.213-.842.522-1.149.924-.309.402-.539.9-.691 1.487s-.23 1.252-.23 1.992.078 1.405.23 1.988.382 1.076.691 1.475c.307.399.689.703 1.149.92.46.213 1.003.321 1.627.321zm0-11.14c.912 0 1.738.151 2.473.455.735.305 1.359.736 1.873 1.295.513.558.908 1.232 1.183 2.025s.41 1.679.41 2.657c0 .986-.135 1.874-.41 2.662-.275.789-.67 1.462-1.183 2.02-.514.559-1.138.987-1.873 1.287-.735.299-1.561.452-2.473.452s-1.733-.153-2.469-.452c-.735-.3-1.363-.728-1.881-1.287-.517-.558-.916-1.231-1.195-2.02-.279-.788-.419-1.676-.419-2.662 0-.978.14-1.864.419-2.657s.678-1.467 1.195-2.025c.518-.559 1.146-.99 1.881-1.295.736-.304 1.557-.455 2.469-.455zm-8.429-3.734c0 .214-.041.411-.127.595-.086.185-.201.35-.345.494-.144.143-.312.258-.501.34s-.391.123-.604.123c-.214 0-.411-.041-.595-.123-.185-.082-.35-.197-.493-.34-.144-.144-.259-.309-.342-.494-.082-.184-.123-.381-.123-.595s.041-.419.123-.612c.083-.193.198-.362.342-.505.143-.144.308-.255.493-.337.184-.082.381-.123.595-.123.213 0 .415.041.604.123s.357.193.501.337c.144.143.259.312.345.505s.127.398.127.612zm-2.685 16.414h2.193v-12.495h-2.193zm-5.657.197c-.986 0-1.742-.275-2.272-.826-.529-.55-.796-1.343-.796-2.382v-7.644h-1.504c-.131 0-.242-.041-.332-.12-.091-.078-.136-.197-.136-.361v-.879l2.045-.259.506-3.856c.016-.124.069-.227.16-.305.09-.078.205-.114.345-.114h1.109v4.3h3.574v1.594h-3.574v7.501c0 .525.127.916.382 1.169.255.255.583.383.986.383.23 0 .431-.033.6-.094.168-.062.312-.128.435-.202s.23-.144.316-.206c.087-.061.16-.09.226-.09.115 0 .218.07.308.214l.641 1.06c-.378.349-.834.62-1.368.821-.534.197-1.084.296-1.651.296zm-12.803-1.553c.386 0 .739-.037 1.059-.115.321-.078.625-.184.908-.328.284-.141.555-.313.813-.518.259-.202.51-.431.756-.69v-2.588c-1.01 0-1.869.066-2.575.193-.707.127-1.282.292-1.725.501-.444.205-.765.448-.966.728-.201.278-.304.591-.304.94 0 .329.054.612.161.851.107.237.25.435.431.587.18.151.394.263.641.332.247.07.513.107.801.107zm5.693 1.356h-.974c-.213 0-.386-.033-.517-.099-.131-.065-.218-.21-.259-.423l-.247-1.163c-.328.296-.648.564-.961.797-.312.238-.641.436-.985.596-.346.16-.711.284-1.101.366-.391.082-.826.123-1.303.123-.484 0-.936-.07-1.359-.205-.423-.136-.792-.342-1.105-.612-.312-.272-.559-.617-.743-1.035-.185-.416-.28-.909-.28-1.479 0-.497.136-.974.407-1.43.271-.46.711-.866 1.314-1.223.604-.354 1.393-.646 2.37-.871.978-.226 2.173-.341 3.586-.341v-.983c0-.972-.205-1.713-.62-2.209-.415-.502-1.031-.752-1.844-.752-.534 0-.982.066-1.348.202-.365.135-.681.287-.948.456-.268.168-.497.32-.69.456-.194.134-.387.205-.576.205-.148 0-.274-.037-.386-.115-.111-.079-.201-.173-.266-.288l-.395-.69c.69-.67 1.434-1.171 2.231-1.503.796-.333 1.679-.497 2.649-.497.698 0 1.318.114 1.86.345.543.23.999.551 1.368.961.37.411.649.908.838 1.495.189.584.284 1.224.284 1.923zm-22.871 0v-12.495h1.306c.313 0 .51.151.591.456l.173 1.359c.542-.603 1.15-1.089 1.82-1.458.67-.37 1.442-.555 2.32-.555.683 0 1.287.116 1.808.341.522.226.957.546 1.306.961s.612.916.793 1.5c.181.583.271 1.228.271 1.935v7.956h-2.194v-7.956c0-.946-.213-1.681-.644-2.202-.431-.522-1.093-.785-1.98-.785-.649 0-1.253.157-1.816.468-.563.313-1.084.74-1.561 1.274v9.201z"/><path d="m605.8144 228.38 4.599-11.987 4.558 11.987zm-6.917 10.65h2.869l3.184-8.293h10.886l3.184 8.293h2.987l-9.55-24.681c-.276-.668-.747-.983-2.005-.983s-1.73.315-2.004.983zm-30.932.472c4.009 0 6.996-1.571 8.569-3.143.942-.944 1.493-1.966 1.493-2.594 0-1.376-1.691-1.73-1.73-1.572-1.178 3.065-4.441 4.991-8.213 4.991-5.779 0-9.984-4.56-9.984-10.887 0-6.367 4.088-10.848 9.904-10.848 3.066 0 6.368 1.533 7.979 4.324.079.117 1.572-.237 1.572-1.612 0-.511-.393-1.258-1.1-1.966-1.494-1.493-4.285-3.065-8.371-3.065-7.508 0-12.735 5.463-12.735 13.245 0 7.743 5.188 13.127 12.616 13.127zm-39.853-.472h2.673v-25.429h-2.673zm-39.224-12.969v-10.062h5.935c4.205 0 6.327 1.73 6.327 5.031 0 3.027-1.965 5.031-6.17 5.031zm15.014-5.11c0-4.873-3.224-7.349-9.158-7.349h-6.996c-.826 0-1.494.668-1.494 1.493v23.935h2.634v-10.689h3.183l8.254 9.903c.59.708 1.139.945 1.65.945 1.101 0 1.77-1.062 1.612-1.258l-8.096-9.59c5.227-.04 8.411-2.673 8.411-7.39zm-59.466 18.079h18.001v-2.436h-15.328v-9.433h12.302v-2.358h-12.302v-8.764h15.092v-2.437h-16.272c-.825 0-1.493.668-1.493 1.493zm-48.304 0h2.555v-22.52l6.643 14.503c.471 1.061.982 1.69 2.318 1.69 1.298 0 1.848-.629 2.319-1.69l6.682-14.503v22.52h2.555v-23.895c0-.984-.786-1.691-1.926-1.691h-.551c-1.375 0-1.729.629-2.318 2.005l-6.721 14.818-6.682-14.818c-.628-1.376-.943-2.005-2.319-2.005h-.629c-1.139 0-1.926.707-1.926 1.691zm-38.831-10.65 4.598-11.987 4.56 11.987zm-6.918 10.65h2.87l3.183-8.293h10.887l3.183 8.293h2.988l-9.551-24.681c-.274-.668-.746-.983-2.004-.983s-1.729.315-2.005.983z"/><path d="m515.9208 199.128c0-2.326-.627-4.175-1.879-5.576-1.252-1.402-2.951-2.474-5.099-3.25-2.146-.745-4.621-1.312-7.423-1.67-2.804-.387-5.755-.567-8.857-.567h-9.481c-3.221 0-6.291-.387-9.214-1.192-3.399 1.61-6.142 3.578-8.259 5.903-2.117 2.327-3.19 5.099-3.19 8.32 0 .755.074 1.493.221 2.213h-14.175l-.001-.156c0-4.472 1.431-8.259 4.264-11.39 2.832-3.16 6.708-5.635 11.658-7.484-2.564-1.193-4.591-2.773-6.112-4.771-1.52-1.998-2.296-4.651-2.296-7.991 0-1.282.239-2.653.715-4.055.478-1.371 1.223-2.772 2.207-4.144.985-1.342 2.176-2.654 3.608-3.906 1.431-1.253 3.101-2.356 5.009-3.31-4.472-2.505-7.961-5.844-10.496-9.989-2.534-4.174-3.816-9.034-3.816-14.58 0-4.443.864-8.439 2.564-12.076 1.699-3.608 4.055-6.709 7.097-9.243 3.041-2.535 6.679-4.503 10.883-5.875 4.204-1.371 8.796-2.057 13.805-2.057 3.936 0 7.633.418 11.062 1.283 3.43.864 6.53 2.146 9.333 3.816h24.599v5.934c0 1.967-1.252 3.25-3.757 3.786l-10.287 1.431c2.028 3.877 3.042 8.2 3.042 12.971 0 4.413-.835 8.438-2.535 12.046s-4.055 6.709-7.067 9.273-6.589 4.533-10.734 5.904c-4.144 1.371-8.706 2.057-13.656 2.057-4.234 0-8.23-.507-11.987-1.49-1.907 1.222-3.339 2.534-4.323 3.965-.984 1.402-1.49 2.803-1.49 4.145 0 2.236.864 3.906 2.593 5.039 1.73 1.133 4.026 1.968 6.888 2.445 2.862.506 6.112.745 9.75.745h11.151c3.788 0 7.485.328 11.123.984 3.637.685 6.887 1.759 9.749 3.28 2.863 1.491 5.159 3.578 6.888 6.232 1.73 2.653 2.594 6.112 2.594 10.346 0 2.314-.334 4.596-1.01 6.835h-14.354c.463-1.321.695-2.712.695-4.181m-28.267-48.9c3.22 0 6.082-.447 8.557-1.342 2.476-.894 4.532-2.147 6.202-3.757 1.67-1.639 2.922-3.548 3.757-5.784.835-2.266 1.253-4.712 1.253-7.425 0-5.545-1.67-9.959-5.039-13.268-3.37-3.28-8.289-4.92-14.73-4.92-6.38 0-11.241 1.64-14.61 4.92-3.37 3.309-5.069 7.723-5.069 13.268 0 2.713.447 5.159 1.311 7.425.865 2.236 2.117 4.145 3.787 5.784 1.67 1.61 3.728 2.863 6.173 3.757 2.445.895 5.247 1.342 8.408 1.342"/><path d="m288.268 207.9327c5.039 3.695 6.549 10.683 3.301 16.174-1.363 2.305-3.36 4.001-5.638 5-.423.185-.856.347-1.296.483-.276.086-.554.162-.835.228l1.589 5.731c1.023-.256 1.95-.53 2.92-.954 3.39-1.482 6.364-4.005 8.391-7.434 4.87-8.234 2.537-18.733-5.119-24.179-.419-.298-.855-.582-1.307-.849l-3.03 5.124c.356.211.697.437 1.024.676"/></g></g></svg>