<svg height="305" viewBox="0 0 623 305" width="623" xmlns="http://www.w3.org/2000/svg"><g fill="#fff" fill-rule="evenodd" transform=""><path d="m287.2906 206.2821c-5.848-3.459-13.394-1.521-16.852 4.326-1.178 1.992-1.73 4.18-1.715 6.337.029 4.176 2.185 8.234 6.041 10.516 2.848 1.683 6.097 2.089 9.081 1.385.281-.066.56-.142.835-.227.441-.137.874-.298 1.297-.484 2.278-.999 4.276-2.696 5.639-5.001 3.248-5.493 1.738-12.481-3.302-16.176-.326-.239-.668-.465-1.024-.676zm6.655-73.227 14.807-14.073c-.134-.003-.269-.004-.404-.004-1.949 0-3.824.346-5.637 1.058-1.713.672-3.226 1.639-4.53 2.942-1.409 1.409-2.397 3.186-3.107 5.034-.617 1.602-.964 3.318-1.129 5.043zm-76.052 65.365h7.284l-15.42 14.657h53.388c.402-1.892 1.113-3.752 2.152-5.509 5.139-8.687 16.346-11.564 25.033-6.427l-.009.016c.45.266.884.549 1.303.846l29.905-44.69v41.107h25.288l-42.764 106.092-17.905-70.121c-.233.065-.471.127-.713.188-4.735 1.18-9.304.512-13.711-1.979-4.589-2.714-7.557-7.121-8.579-11.956h-255.768l-7.378-7.567h202.462zm50.048-47.537-27.435 26.059v6.908l27.435-26.077zm158.854-150.883-103.062 97.891c1.05.311 2.086.673 3.106 1.089.684.279 1.354.578 2.009.899l85.483-81.251-68.69 102.651c1.279 4.673 1.772 9.567 1.772 14.399v61.264l27.636-68.564c-1.336-.247-2.598-.763-3.745-1.57-1.391-.98-2.55-2.21-3.394-3.689l-4.781-8.365 2.774-2.69c5.174-5.02 11.073-9.152 17.741-11.936 1.086-.453 2.183-.864 3.29-1.234z"/><path d="m584.5167 101.2948c5.427 0 10.437.925 15.029 2.744s8.559 4.443 11.899 7.872 5.964 7.694 7.843 12.734c1.878 5.039 2.802 10.795 2.802 17.266 0 2.505-.268 4.175-.804 5.009-.538.835-1.551 1.253-3.042 1.253h-60.297c.119 5.726.894 10.735 2.326 14.97 1.431 4.264 3.399 7.783 5.904 10.645 2.505 2.833 5.487 4.95 8.946 6.353 3.459 1.401 7.336 2.117 11.63 2.117 3.996 0 7.455-.477 10.348-1.401 2.893-.925 5.367-1.939 7.455-3.012 2.087-1.074 3.847-2.058 5.248-2.983 1.401-.954 2.595-1.401 3.609-1.401 1.312 0 2.326.507 3.041 1.521l4.473 5.844c-1.968 2.357-4.323 4.414-7.067 6.173-2.743 1.76-5.666 3.192-8.797 4.324-3.131 1.104-6.382 1.968-9.721 2.535-3.341.567-6.651.835-9.931.835-6.262 0-12.017-1.074-17.295-3.191-5.279-2.117-9.842-5.219-13.688-9.304-3.847-4.086-6.859-9.154-9.006-15.178s-3.221-12.942-3.221-20.786c0-6.321.985-12.226 2.922-17.713 1.939-5.487 4.712-10.258 8.35-14.284 3.639-4.025 8.082-7.187 13.33-9.483 5.249-2.296 11.153-3.459 17.714-3.459m.357 11.809c-7.693 0-13.747 2.207-18.16 6.65-4.414 4.414-7.157 10.557-8.231 18.399h49.294c0-3.697-.507-7.067-1.522-10.109-1.013-3.071-2.505-5.726-4.472-7.932-1.969-2.236-4.354-3.966-7.187-5.189-2.833-1.222-6.083-1.819-9.722-1.819"/><path d="m116.2741 113.1039c-7.693 0-13.747 2.207-18.16 6.65-4.414 4.413-7.157 10.557-8.231 18.399h49.293c0-3.697-.506-7.067-1.521-10.109-1.013-3.071-2.505-5.726-4.473-7.932-1.968-2.237-4.353-3.966-7.186-5.189-2.833-1.222-6.084-1.819-9.722-1.819zm-.358-11.809c5.427 0 10.438.925 15.03 2.744s8.558 4.442 11.898 7.872c3.34 3.429 5.965 7.694 7.843 12.734 1.879 5.039 2.803 10.794 2.803 17.266 0 2.505-.268 4.174-.805 5.009s-1.55 1.253-3.041 1.253h-60.298c.119 5.725.895 10.735 2.326 14.97 1.432 4.264 3.4 7.783 5.905 10.645 2.505 2.833 5.487 4.95 8.946 6.353 3.459 1.401 7.336 2.117 11.63 2.117 3.996 0 7.455-.477 10.348-1.402 2.893-.924 5.367-1.938 7.455-3.011 2.087-1.074 3.847-2.058 5.248-2.983 1.402-.954 2.594-1.401 3.608-1.401 1.313 0 2.327.507 3.042 1.52l4.473 5.845c-1.968 2.357-4.324 4.414-7.067 6.173-2.744 1.76-5.666 3.191-8.797 4.324-3.132 1.104-6.382 1.968-9.722 2.534-3.34.568-6.65.836-9.93.836-6.262 0-12.017-1.074-17.296-3.191s-9.841-5.219-13.687-9.304c-3.847-4.086-6.86-9.154-9.007-15.178-2.146-6.024-3.22-12.942-3.22-20.786 0-6.321.985-12.226 2.923-17.713 1.937-5.487 4.711-10.258 8.349-14.284s8.081-7.187 13.33-9.483 11.153-3.459 17.713-3.459zm-107.979 92.145v-90.713h9.125c1.729 0 2.922.357 3.578 1.043s1.103 1.909 1.342 3.608l1.073 15.03c3.102-6.71 6.948-11.928 11.511-15.656 4.562-3.757 9.9-5.636 16.043-5.636 2.505 0 4.772.298 6.8.865 2.028.596 3.906 1.401 5.636 2.445l-2.058 11.899c-.417 1.49-1.342 2.236-2.773 2.236-.836 0-2.117-.298-3.847-.865s-4.145-.834-7.246-.834c-5.547 0-10.169 1.669-13.897 5.039-3.727 3.37-6.859 8.26-9.364 14.672v56.867z"/><path d="m219.6022 193.4403v-90.714h9.483c2.267 0 3.698 1.103 4.294 3.31l1.163 9.334c3.34-4.145 7.098-7.515 11.243-10.139s8.945-3.937 14.433-3.937c6.143 0 11.123 1.701 14.91 5.1 3.787 3.4 6.501 7.992 8.171 13.807 1.252-3.281 2.923-6.143 4.98-8.529s4.354-4.354 6.918-5.904c2.565-1.551 5.308-2.684 8.201-3.4s5.815-1.074 8.797-1.074c4.771 0 9.035.776 12.763 2.297 3.727 1.52 6.889 3.727 9.483 6.65 2.594 2.922 4.563 6.531 5.935 10.795 1.371 4.264 2.058 9.154 2.058 14.641v57.763h-15.925v-57.763c0-7.096-1.551-12.494-4.652-16.163-3.102-3.667-7.604-5.516-13.508-5.516-2.624 0-5.1.477-7.456 1.401-2.356.925-4.443 2.267-6.232 4.057-1.79 1.788-3.191 4.055-4.235 6.769s-1.58 5.874-1.58 9.452v54.086c-2.371-.649-4.866-.998-7.444-.998-2.956 0-5.804.457-8.481 1.303v-54.391c0-7.276-1.461-12.733-4.383-16.311-2.922-3.579-7.187-5.368-12.793-5.368-3.936 0-7.575 1.074-10.944 3.191-3.37 2.117-6.471 5.01-9.275 8.648v67.603zm216.776 0h-7.068c-1.551 0-2.803-.238-3.757-.716-.954-.476-1.58-1.52-1.879-3.071l-1.789-8.44c-2.386 2.148-4.712 4.086-6.978 5.786-2.266 1.73-4.652 3.161-7.157 4.324s-5.158 2.057-7.992 2.654c-2.833.596-5.994.894-9.453.894-3.519 0-6.799-.506-9.87-1.491-3.073-.984-5.756-2.475-8.023-4.443-2.266-1.968-4.056-4.473-5.397-7.515-1.342-3.011-2.028-6.589-2.028-10.735 0-3.608.985-7.067 2.952-10.378 1.968-3.34 5.16-6.292 9.542-8.886 4.384-2.565 10.11-4.682 17.207-6.322s15.776-2.475 26.034-2.475v-7.127c0-7.068-1.492-12.435-4.503-16.043-3.012-3.639-7.485-5.458-13.389-5.458-3.877 0-7.128.477-9.781 1.462-2.655.983-4.95 2.086-6.889 3.31-1.938 1.222-3.608 2.326-5.01 3.31s-2.803 1.491-4.175 1.491c-1.074 0-1.998-.269-2.803-.836-.805-.566-1.461-1.252-1.939-2.087l-2.862-5.01c5.01-4.861 10.407-8.498 16.192-10.914 5.786-2.416 12.197-3.608 19.235-3.608 5.069 0 9.572.834 13.509 2.505 3.935 1.67 7.246 3.995 9.929 6.978 2.685 2.982 4.712 6.59 6.083 10.854 1.372 4.235 2.059 8.887 2.059 13.956zm-41.332-9.841c2.804 0 5.368-.268 7.694-.835 2.326-.566 4.532-1.342 6.59-2.386 2.058-1.013 4.026-2.266 5.904-3.757 1.879-1.46 3.699-3.131 5.488-5.009v-18.787c-7.336 0-13.569.476-18.698 1.401-5.129.924-9.303 2.118-12.524 3.638-3.221 1.491-5.547 3.251-7.008 5.278-1.461 2.028-2.207 4.295-2.207 6.829 0 2.386.388 4.444 1.163 6.173.776 1.73 1.82 3.16 3.131 4.265 1.313 1.102 2.863 1.908 4.652 2.415s3.728.775 5.815.775z"/><path d="m195.09 74.2777c0 1.55-.298 2.981-.924 4.324-.626 1.342-1.462 2.535-2.505 3.578-1.044 1.044-2.267 1.879-3.638 2.475-1.372.597-2.833.895-4.384.895s-2.982-.298-4.324-.895c-1.342-.596-2.535-1.431-3.579-2.475-1.043-1.043-1.877-2.236-2.475-3.578-.596-1.343-.894-2.774-.894-4.324 0-1.551.298-3.042.894-4.443.598-1.402 1.432-2.624 2.475-3.669 1.044-1.043 2.237-1.848 3.579-2.445 1.342-.596 2.773-.894 4.324-.894s3.012.298 4.384.894c1.371.597 2.594 1.402 3.638 2.445 1.043 1.045 1.879 2.267 2.505 3.669.626 1.401.924 2.892.924 4.443"/><path d="m175.588 193.44h15.923v-90.714h-15.923z"/><path d="m515.9884 198.1522c0-2.326-.626-4.175-1.879-5.576-1.252-1.403-2.951-2.476-5.099-3.251-2.147-.745-4.622-1.312-7.425-1.67-2.803-.388-5.755-.566-8.857-.566h-9.482c-3.221 0-6.292-.389-9.215-1.194-3.399 1.611-6.143 3.579-8.26 5.905s-3.191 5.099-3.191 8.32c0 .755.074 1.493.221 2.214h-14.177v-.157c0-4.472 1.431-8.259 4.264-11.391 2.833-3.161 6.709-5.636 11.66-7.485-2.565-1.193-4.592-2.773-6.113-4.771s-2.297-4.652-2.297-7.992c0-1.282.239-2.655.716-4.056.478-1.371 1.223-2.772 2.207-4.144.984-1.342 2.177-2.655 3.608-3.907 1.432-1.253 3.102-2.356 5.009-3.31-4.472-2.505-7.961-5.845-10.496-9.99-2.535-4.175-3.817-9.036-3.817-14.583 0-4.443.865-8.439 2.565-12.077 1.7-3.608 4.055-6.71 7.097-9.244 3.042-2.535 6.68-4.503 10.885-5.875 4.204-1.371 8.797-2.057 13.806-2.057 3.937 0 7.634.417 11.064 1.282s6.53 2.147 9.334 3.817h24.601v5.934c0 1.968-1.251 3.251-3.756 3.787l-10.288 1.432c2.027 3.876 3.041 8.201 3.041 12.972 0 4.413-.835 8.439-2.535 12.047s-4.055 6.71-7.067 9.274c-3.013 2.565-6.591 4.533-10.736 5.905s-8.707 2.057-13.658 2.057c-4.234 0-8.23-.506-11.988-1.49-1.908 1.222-3.34 2.534-4.324 3.966-.983 1.401-1.49 2.803-1.49 4.145 0 2.237.864 3.906 2.593 5.04 1.73 1.132 4.027 1.967 6.89 2.445 2.862.507 6.112.745 9.751.745h11.152c3.789 0 7.486.328 11.124.984 3.638.686 6.888 1.76 9.751 3.28 2.863 1.492 5.16 3.579 6.888 6.233 1.73 2.653 2.595 6.112 2.595 10.348 0 2.314-.335 4.596-1.011 6.836h-14.355c.463-1.322.694-2.713.694-4.182m-28.27-48.906c3.221 0 6.083-.447 8.559-1.342s4.533-2.147 6.202-3.757c1.67-1.641 2.923-3.549 3.758-5.786.835-2.266 1.253-4.711 1.253-7.424 0-5.547-1.67-9.961-5.04-13.271-3.37-3.28-8.29-4.92-14.732-4.92-6.381 0-11.242 1.64-14.612 4.92-3.37 3.31-5.069 7.724-5.069 13.271 0 2.713.447 5.158 1.311 7.424.866 2.237 2.118 4.145 3.788 5.786 1.67 1.61 3.728 2.862 6.173 3.757 2.446.895 5.248 1.342 8.409 1.342"/><path d="m256.9381 242.9227c-.097.179-.248.269-.45.269-.122 0-.26-.045-.414-.135-.155-.089-.341-.191-.564-.3-.224-.109-.492-.211-.8-.305-.309-.092-.674-.137-1.096-.137-.365 0-.694.045-.987.137-.292.094-.539.224-.746.386s-.365.349-.475.564c-.109.215-.166.451-.166.703 0 .316.093.58.276.791.182.211.422.393.722.548.301.154.641.288 1.023.406.382.117.775.243 1.177.377s.792.284 1.173.446c.381.163.723.365 1.023.609s.543.54.726.893c.182.353.272.779.272 1.274 0 .569-.101 1.092-.304 1.576-.203.482-.503.9-.901 1.253-.398.354-.885.633-1.461.836-.577.204-1.242.305-1.997.305-.861 0-1.64-.138-2.338-.414s-1.291-.629-1.778-1.06l.512-.847c.065-.106.142-.188.231-.248.09-.057.207-.085.353-.085s.301.056.463.17.361.24.592.378c.232.137.512.263.841.378.328.113.738.17 1.233.17.423 0 .792-.057 1.109-.167.316-.11.58-.255.791-.442s.369-.402.47-.645c.102-.245.151-.508.151-.784 0-.34-.089-.621-.272-.844-.182-.223-.427-.414-.726-.573-.301-.162-.642-.299-1.027-.418-.386-.117-.78-.239-1.181-.369-.403-.13-.796-.28-1.182-.446-.385-.166-.73-.373-1.03-.625-.301-.252-.54-.564-.723-.934-.183-.369-.276-.82-.276-1.347 0-.471.097-.925.292-1.36.195-.434.479-.816.853-1.144.373-.329.832-.593 1.376-.787.543-.196 1.164-.293 1.862-.293.812 0 1.542.13 2.188.386.645.259 1.201.613 1.672 1.063zm-16.875 10.301v-12.346h1.241c.236 0 .398.049.488.142.089.093.149.259.182.491l.146 2.046c.422-.913.946-1.624 1.567-2.131.621-.512 1.347-.768 2.183-.768.341 0 .65.041.926.119.276.081.531.19.767.333l-.28 1.619c-.057.203-.183.304-.378.304-.113 0-.288-.041-.523-.118-.236-.077-.565-.113-.987-.113-.754 0-1.384.226-1.891.685s-.933 1.124-1.274 1.998v7.739zm-8.548-1.522c1.217 0 2.127-.41 2.727-1.225.601-.817.902-1.956.902-3.422 0-1.469-.301-2.613-.902-3.438-.6-.819-1.51-1.229-2.727-1.229-.617 0-1.153.105-1.607.316-.455.211-.832.516-1.136.913-.305.398-.532.889-.683 1.47-.15.58-.227 1.237-.227 1.968 0 .73.077 1.389.227 1.965.151.576.378 1.063.683 1.457.304.393.681.693 1.136.909.454.211.99.316 1.607.316zm0-11.007c.901 0 1.717.151 2.443.451.727.3 1.344.726 1.851 1.278s.897 1.218 1.169 2.001.406 1.66.406 2.626c0 .975-.134 1.851-.406 2.63s-.662 1.445-1.169 1.997-1.124.974-1.851 1.27c-.726.296-1.542.447-2.443.447s-1.713-.151-2.439-.447c-.727-.296-1.347-.718-1.859-1.27-.511-.552-.905-1.218-1.181-1.997s-.414-1.655-.414-2.63c0-.966.138-1.843.414-2.626s.67-1.449 1.181-2.001c.512-.552 1.132-.978 1.859-1.278.726-.3 1.538-.451 2.439-.451zm-10.337 12.724c-.974 0-1.721-.272-2.245-.815-.523-.544-.787-1.327-.787-2.355v-7.553h-1.486c-.13 0-.239-.041-.328-.118-.09-.077-.134-.194-.134-.357v-.868l2.021-.256.499-3.811c.016-.122.069-.223.158-.3.089-.078.203-.114.341-.114h1.096v4.249h3.531v1.575h-3.531v7.411c0 .519.126.905.377 1.157.252.252.577.378.975.378.227 0 .426-.033.592-.094s.308-.126.431-.199c.121-.072.227-.142.312-.202.085-.062.158-.09.223-.09.114 0 .216.069.305.211l.633 1.047c-.374.345-.824.613-1.352.812-.527.194-1.071.292-1.631.292zm-7.074-16.413c0 .211-.041.405-.126.588s-.199.346-.341.487c-.142.143-.309.256-.495.337-.187.081-.386.122-.597.122s-.406-.041-.588-.122c-.183-.081-.346-.194-.487-.337-.142-.141-.256-.304-.337-.487-.082-.183-.122-.377-.122-.588s.04-.414.122-.604c.081-.192.195-.358.337-.5.141-.142.304-.251.487-.333.182-.081.377-.122.588-.122s.41.041.597.122c.186.082.353.191.495.333s.256.308.341.5c.085.19.126.393.126.604zm-2.655 16.218h2.167v-12.346h-2.167zm-9.375-1.582c.706 0 1.327-.163 1.859-.488.531-.325 1.018-.783 1.465-1.376v-5.974c-.398-.535-.832-.913-1.307-1.128-.475-.216-1.003-.325-1.579-.325-1.153 0-2.037.41-2.654 1.234-.617.819-.925 1.988-.925 3.511 0 .804.068 1.493.207 2.065.137.573.34 1.043.608 1.413s.597.641.986.812c.39.17.837.256 1.34.256zm4.2 1.582c-.308 0-.503-.15-.584-.45l-.195-1.497c-.528.64-1.128 1.152-1.806 1.537s-1.457.581-2.334.581c-.706 0-1.347-.138-1.923-.41-.577-.272-1.068-.67-1.473-1.198-.406-.531-.719-1.188-.938-1.976-.219-.787-.329-1.693-.329-2.719 0-.909.122-1.754.365-2.541.244-.783.597-1.461 1.056-2.042.458-.576 1.014-1.026 1.672-1.356.657-.328 1.404-.495 2.24-.495.755 0 1.4.13 1.936.386s1.015.613 1.437 1.076v-6.843h2.167v17.947zm-20.345-12.346v7.873c0 .934.215 1.66.645 2.172s1.08.768 1.948.768c.633 0 1.23-.152 1.79-.452.56-.299 1.075-.718 1.546-1.254v-9.107h2.167v12.346h-1.29c-.308 0-.504-.15-.585-.45l-.17-1.328c-.536.593-1.137 1.068-1.802 1.429s-1.428.544-2.289.544c-.674 0-1.266-.113-1.782-.337-.515-.223-.95-.536-1.298-.941-.35-.406-.609-.902-.784-1.478-.174-.576-.264-1.214-.264-1.912v-7.873zm-10.788 11.007c.381 0 .731-.036 1.047-.114.317-.077.617-.183.897-.325.28-.137.548-.308.804-.511.256-.199.503-.426.746-.682v-2.557c-.998 0-1.846.065-2.544.191s-1.267.288-1.705.495c-.438.203-.755.442-.954.719-.199.275-.3.584-.3.929 0 .325.053.605.158.84.106.236.248.431.426.58.179.151.39.26.634.329.243.07.506.106.791.106zm5.625 1.339h-.962c-.211 0-.381-.032-.511-.097s-.215-.207-.256-.418l-.244-1.149c-.324.293-.641.556-.949.788-.309.235-.633.429-.974.588-.341.158-.702.28-1.088.361-.385.081-.816.122-1.286.122-.479 0-.926-.069-1.344-.203s-.783-.337-1.091-.605c-.309-.267-.553-.609-.735-1.023-.183-.409-.276-.896-.276-1.461 0-.491.134-.961.402-1.412.267-.455.702-.856 1.299-1.209.596-.35 1.375-.638 2.341-.861s2.147-.337 3.543-.337v-.97c0-.962-.202-1.692-.613-2.184-.409-.495-1.018-.742-1.822-.742-.528 0-.97.065-1.331.199s-.674.284-.937.451c-.264.166-.492.316-.682.45-.191.134-.382.203-.568.203-.147 0-.272-.037-.382-.114-.11-.076-.199-.17-.264-.283l-.389-.683c.681-.661 1.416-1.156 2.203-1.485.788-.329 1.66-.492 2.618-.492.69 0 1.303.115 1.839.342.535.227.986.543 1.351.949s.641.898.828 1.478c.187.576.28 1.209.28 1.899zm-22.89-1.582c.706 0 1.327-.163 1.858-.488.532-.325 1.019-.783 1.466-1.376v-5.974c-.398-.535-.832-.913-1.307-1.128-.475-.216-1.003-.325-1.579-.325-1.153 0-2.038.41-2.654 1.234-.617.819-.926 1.988-.926 3.511 0 .804.069 1.493.207 2.065.138.573.341 1.043.609 1.413s.597.641.986.812c.39.17.837.256 1.34.256zm4.2 1.582c-.308 0-.503-.15-.584-.45l-.195-1.497c-.528.64-1.129 1.152-1.806 1.537-.678.385-1.457.581-2.334.581-.706 0-1.347-.138-1.924-.41-.576-.272-1.067-.67-1.473-1.198-.406-.531-.718-1.188-.937-1.976-.219-.787-.329-1.693-.329-2.719 0-.909.122-1.754.365-2.541.244-.783.597-1.461 1.056-2.042.458-.576 1.014-1.026 1.671-1.356.658-.328 1.405-.495 2.241-.495.755 0 1.4.13 1.936.386.535.256 1.014.613 1.437 1.076v-6.843h2.167v17.947zm-22.221 0v-12.346h1.291c.309 0 .503.149.584.45l.171 1.344c.536-.597 1.136-1.076 1.798-1.441.661-.366 1.425-.548 2.293-.548.674 0 1.27.114 1.786.337.515.223.946.54 1.29.95.346.409.605.904.784 1.481.178.576.268 1.213.268 1.911v7.862h-2.168v-7.862c0-.933-.211-1.66-.637-2.175s-1.08-.775-1.956-.775c-.642 0-1.238.155-1.794.462-.556.31-1.071.732-1.542 1.259v9.091zm-8.912-1.339c.381 0 .73-.036 1.047-.114.317-.077.616-.183.897-.325.28-.137.548-.308.803-.511.256-.199.504-.426.747-.682v-2.557c-.998 0-1.847.065-2.544.191-.699.126-1.267.288-1.705.495-.438.203-.755.442-.954.719-.199.275-.3.584-.3.929 0 .325.052.605.158.84.105.236.247.431.426.58.178.151.39.26.633.329.244.07.507.106.792.106zm5.625 1.339h-.962c-.211 0-.382-.032-.511-.097-.13-.065-.216-.207-.256-.418l-.244-1.149c-.324.293-.641.556-.949.788-.309.235-.633.429-.975.588-.34.158-.701.28-1.087.361s-.816.122-1.287.122c-.479 0-.925-.069-1.343-.203s-.784-.337-1.092-.605c-.308-.267-.552-.609-.735-1.023-.182-.409-.275-.896-.275-1.461 0-.491.133-.961.401-1.412.268-.455.703-.856 1.299-1.209.597-.35 1.376-.638 2.342-.861s2.147-.337 3.543-.337v-.97c0-.962-.203-1.692-.613-2.184-.409-.495-1.018-.742-1.822-.742-.528 0-.97.065-1.332.199-.36.134-.673.284-.937.451-.264.166-.491.316-.682.45s-.381.203-.568.203c-.146 0-.272-.037-.381-.114-.11-.076-.199-.17-.264-.283l-.39-.683c.682-.661 1.417-1.156 2.204-1.485s1.66-.492 2.618-.492c.69 0 1.303.115 1.838.342.536.227.987.543 1.352.949s.641.898.828 1.478c.187.576.28 1.209.28 1.899zm-18.41 0v-12.346h1.242c.235 0 .397.049.487.142s.15.259.183.491l.146 2.046c.422-.913.945-1.624 1.566-2.131.621-.512 1.348-.768 2.184-.768.341 0 .649.041.925.119.276.081.532.19.767.333l-.28 1.619c-.057.203-.183.304-.377.304-.114 0-.288-.041-.523-.118-.236-.077-.565-.113-.987-.113-.755 0-1.384.226-1.891.685-.508.459-.934 1.124-1.275 1.998v7.739zm-8.036-10.812c-.706 0-1.323.17-1.855.516-.532.341-1.023.827-1.469 1.452v5.881c.39.528.824.901 1.299 1.116.474.216 1.002.325 1.587.325 1.152 0 2.037-.41 2.654-1.229.617-.821.925-1.989.925-3.507 0-.804-.069-1.494-.211-2.07-.142-.577-.349-1.051-.617-1.42-.267-.37-.596-.638-.986-.809-.389-.17-.832-.255-1.327-.255zm-5.503 10.812v-17.947h2.179v7.508c.512-.629 1.1-1.14 1.762-1.526.661-.386 1.416-.576 2.268-.576.715 0 1.36.135 1.936.402.576.268 1.068.669 1.473 1.201.406.532.719 1.19.938 1.973.219.787.328 1.688.328 2.711 0 .913-.121 1.758-.365 2.545-.243.783-.592 1.461-1.051 2.033s-1.019 1.022-1.68 1.352c-.662.328-1.408.495-2.236.495-.796 0-1.47-.155-2.025-.467-.557-.309-1.043-.743-1.457-1.299l-.11 1.129c-.065.311-.252.466-.56.466zm-10.764 0h2.167v-17.947h-2.167zm-9.156-1.339c.382 0 .73-.036 1.047-.114.317-.077.617-.183.897-.325.28-.137.548-.308.804-.511.255-.199.503-.426.746-.682v-2.557c-.998 0-1.846.065-2.544.191-.699.126-1.267.288-1.705.495-.438.203-.755.442-.954.719-.199.275-.3.584-.3.929 0 .325.053.605.158.84.106.236.248.431.426.58.179.151.39.26.633.329.244.07.508.106.792.106zm5.625 1.339h-.962c-.211 0-.382-.032-.511-.097-.13-.065-.215-.207-.256-.418l-.243-1.149c-.325.293-.642.556-.95.788-.309.235-.633.429-.974.588-.341.158-.702.28-1.088.361-.385.081-.816.122-1.286.122-.479 0-.926-.069-1.344-.203s-.783-.337-1.091-.605c-.309-.267-.553-.609-.735-1.023-.183-.409-.276-.896-.276-1.461 0-.491.134-.961.402-1.412.267-.455.702-.856 1.299-1.209.596-.35 1.375-.638 2.341-.861s2.147-.337 3.543-.337v-.97c0-.962-.202-1.692-.612-2.184-.41-.495-1.019-.742-1.823-.742-.528 0-.97.065-1.331.199-.362.134-.674.284-.938.451-.263.166-.491.316-.681.45-.191.134-.382.203-.569.203-.146 0-.272-.037-.381-.114-.11-.076-.199-.17-.264-.283l-.39-.683c.682-.661 1.417-1.156 2.204-1.485.788-.329 1.66-.492 2.618-.492.69 0 1.303.115 1.839.342.535.227.986.543 1.351.949.366.406.641.898.828 1.478.186.576.28 1.209.28 1.899zm-22.598 0v-12.346h1.291c.308 0 .503.149.584.45l.171 1.344c.535-.597 1.136-1.076 1.797-1.441.662-.366 1.425-.548 2.293-.548.674 0 1.271.114 1.786.337.516.223.946.54 1.291.95.345.409.604.904.783 1.481.179.576.268 1.213.268 1.911v7.862h-2.167v-7.862c0-.933-.211-1.66-.637-2.175-.427-.515-1.08-.775-1.956-.775-.642 0-1.239.155-1.794.462-.557.31-1.072.732-1.543 1.259v9.091zm-8.548-1.522c1.218 0 2.127-.41 2.728-1.225.6-.817.901-1.956.901-3.422 0-1.469-.301-2.613-.901-3.438-.601-.819-1.51-1.229-2.728-1.229-.616 0-1.152.105-1.607.316-.454.211-.832.516-1.136.913-.305.398-.532.889-.682 1.47-.15.58-.227 1.237-.227 1.968 0 .73.077 1.389.227 1.965s.377 1.063.682 1.457c.304.393.682.693 1.136.909.455.211.991.316 1.607.316zm0-11.007c.902 0 1.718.151 2.444.451s1.343.726 1.85 1.278c.508.552.898 1.218 1.169 2.001.272.783.406 1.66.406 2.626 0 .975-.134 1.851-.406 2.63-.271.779-.661 1.445-1.169 1.997-.507.552-1.124.974-1.85 1.27s-1.542.447-2.444.447c-.901 0-1.712-.151-2.439-.447-.726-.296-1.347-.718-1.859-1.27-.511-.552-.905-1.218-1.181-1.997s-.414-1.655-.414-2.63c0-.966.138-1.843.414-2.626s.67-1.449 1.181-2.001c.512-.552 1.133-.978 1.859-1.278.727-.3 1.538-.451 2.439-.451zm-8.328-3.689c0 .211-.04.405-.125.588-.086.183-.2.346-.341.487-.143.143-.309.256-.496.337-.186.081-.385.122-.596.122s-.406-.041-.589-.122c-.182-.081-.345-.194-.487-.337-.142-.141-.256-.304-.337-.487s-.122-.377-.122-.588.041-.414.122-.604c.081-.192.195-.358.337-.5s.305-.251.487-.333c.183-.081.378-.122.589-.122s.41.041.596.122c.187.082.353.191.496.333.141.142.255.308.341.5.085.19.125.393.125.604zm-2.654 16.218h2.167v-12.346h-2.167zm-5.589.195c-.974 0-1.721-.272-2.244-.815-.524-.544-.788-1.327-.788-2.355v-7.553h-1.485c-.13 0-.239-.041-.329-.118-.089-.077-.134-.194-.134-.357v-.868l2.021-.256.499-3.811c.017-.122.07-.223.159-.3.089-.078.203-.114.341-.114h1.096v4.249h3.53v1.575h-3.53v7.411c0 .519.125.905.377 1.157s.576.378.974.378c.227 0 .427-.033.593-.094s.308-.126.43-.199c.122-.072.227-.142.312-.202.086-.062.159-.09.224-.09.114 0 .215.069.304.211l.633 1.047c-.373.345-.823.613-1.351.812-.528.194-1.072.292-1.632.292zm-12.65-1.534c.381 0 .73-.036 1.046-.114.317-.077.618-.183.897-.325.281-.137.548-.308.804-.511.256-.199.504-.426.747-.682v-2.557c-.999 0-1.847.065-2.545.191s-1.266.288-1.704.495c-.439.203-.756.442-.954.719-.199.275-.301.584-.301.929 0 .325.053.605.158.84.106.236.248.431.427.58.178.151.389.26.633.329.244.07.507.106.792.106zm5.625 1.339h-.962c-.211 0-.382-.032-.512-.097-.129-.065-.214-.207-.255-.418l-.244-1.149c-.324.293-.641.556-.95.788-.308.235-.633.429-.973.588-.341.158-.703.28-1.088.361-.386.081-.816.122-1.287.122-.479 0-.925-.069-1.343-.203s-.783-.337-1.092-.605c-.309-.267-.552-.609-.734-1.023-.183-.409-.277-.896-.277-1.461 0-.491.135-.961.402-1.412.268-.455.702-.856 1.299-1.209.597-.35 1.376-.638 2.342-.861s2.147-.337 3.543-.337v-.97c0-.962-.203-1.692-.613-2.184-.41-.495-1.019-.742-1.822-.742-.528 0-.97.065-1.331.199-.362.134-.674.284-.938.451-.264.166-.491.316-.682.45-.19.134-.381.203-.568.203-.146 0-.272-.037-.382-.114-.109-.076-.198-.17-.263-.283l-.39-.683c.682-.661 1.416-1.156 2.204-1.485.787-.329 1.66-.492 2.618-.492.69 0 1.302.115 1.838.342s.986.543 1.352.949c.365.406.641.898.828 1.478.186.576.28 1.209.28 1.899zm-22.599 0v-12.346h1.291c.309 0 .503.149.584.45l.171 1.344c.535-.597 1.136-1.076 1.798-1.441.661-.366 1.424-.548 2.293-.548.673 0 1.27.114 1.786.337.515.223.946.54 1.29.95.346.409.605.904.784 1.481.178.576.268 1.213.268 1.911v7.862h-2.168v-7.862c0-.933-.211-1.66-.637-2.175s-1.08-.775-1.956-.775c-.642 0-1.238.155-1.794.462-.556.31-1.071.732-1.542 1.259v9.091z"/><path d="m604.3947 227.4754 4.543-11.845 4.505 11.845zm-6.835 10.524h2.835l3.146-8.194h10.756l3.146 8.194h2.952l-9.438-24.388c-.271-.66-.737-.971-1.98-.971-1.242 0-1.709.311-1.98.971zm-30.563.466c3.96 0 6.913-1.553 8.465-3.106.932-.933 1.476-1.943 1.476-2.564 0-1.359-1.669-1.709-1.708-1.553-1.165 3.029-4.389 4.932-8.117 4.932-5.708 0-9.864-4.505-9.864-10.758 0-6.291 4.039-10.717 9.787-10.717 3.029 0 6.291 1.514 7.883 4.271.078.116 1.553-.233 1.553-1.592 0-.505-.389-1.243-1.087-1.942-1.475-1.476-4.233-3.029-8.272-3.029-7.417 0-12.582 5.398-12.582 13.088 0 7.65 5.126 12.97 12.466 12.97zm-39.378-.466h2.641v-25.126h-2.641zm-38.758-12.815v-9.942h5.864c4.155 0 6.252 1.709 6.252 4.97 0 2.992-1.941 4.972-6.097 4.972zm14.835-5.049c0-4.815-3.185-7.262-9.049-7.262h-6.912c-.816 0-1.476.661-1.476 1.476v23.65h2.602v-10.563h3.145l8.156 9.786c.583.699 1.126.933 1.63.933 1.088 0 1.749-1.049 1.593-1.243l-8-9.476c5.165-.039 8.311-2.641 8.311-7.301zm-58.757 17.864h17.786v-2.408h-15.145v-9.32h12.155v-2.33h-12.155v-8.66h14.912v-2.408h-16.077c-.816 0-1.476.661-1.476 1.476zm-47.729 0h2.525v-22.253l6.562 14.331c.466 1.048.972 1.669 2.292 1.669 1.282 0 1.826-.621 2.291-1.669l6.602-14.331v22.253h2.524v-23.611c0-.972-.776-1.67-1.902-1.67h-.544c-1.359 0-1.709.621-2.292 1.981l-6.641 14.64-6.601-14.64c-.621-1.36-.932-1.981-2.291-1.981h-.621c-1.127 0-1.904.698-1.904 1.67zm-38.369-10.524 4.544-11.845 4.505 11.845zm-6.835 10.524h2.835l3.146-8.194h10.757l3.146 8.194h2.951l-9.436-24.388c-.273-.66-.739-.971-1.982-.971-1.242 0-1.708.311-1.979.971z"/></g></svg>