<?xml version="1.0" encoding="UTF-8" standalone="no"?>
<svg width="243px" height="25px" viewBox="0 0 243 25" version="1.1" xmlns="http://www.w3.org/2000/svg" xmlns:xlink="http://www.w3.org/1999/xlink">
    <!-- Generator: Sketch 42 (36781) - http://www.bohemiancoding.com/sketch -->
    <title>title border</title>
    <desc>Created with Sketch.</desc>
    <defs></defs>
    <g id="HOME---design" stroke="none" stroke-width="1" fill="none" fill-rule="evenodd">
        <g id="dragonflysg_design_desktop" transform="translate(-598.000000, -944.000000)">
            <g id="section-services" transform="translate(100.000000, 856.000000)">
                <g id="title-border" transform="translate(498.000000, 88.000000)">
                    <g id="title-border-copy">
                        <g id="title-border" transform="translate(0.000000, 11.000000)" stroke="#F7925F" stroke-linecap="square">
                            <path d="M0.5,1.5 L96.6301201,1.5" id="Line"></path>
                            <path d="M145.5,1.5 L241.63012,1.5" id="Line-Copy"></path>
                        </g>
                        <path d="M113.79668,9.47426352 C113.832318,9.43862492 113.866355,9.40178501 113.901193,9.36534553 C114.399733,9.82904786 115.194994,10.0020353 115.765212,10.814115 C116.002669,10.6775671 116.245332,10.5898721 116.48359,10.5033784 C116.242529,10.3347957 116.242529,10.1586049 116.075949,9.98641834 C116.219704,9.46345181 115.893351,8.95810437 116.226912,8.48999726 C116.70463,7.81606719 117.518712,8.03910881 118.193843,8.07274525 C118.288345,8.21570011 118.35722,8.43754044 118.556236,8.4347374 C118.75405,8.19007235 118.747643,7.95181425 118.866572,7.71355614 C118.303962,7.11771066 117.694502,6.26919145 117.417802,5.85113857 C117.45264,5.81429866 117.48948,5.77946092 117.522316,5.74662535 C117.60921,5.7898722 117.694502,5.785067 117.786201,5.69456896 C117.761375,6.47341268 118.839342,7.08487509 119.227763,7.76320993 C119.080003,8.20929317 118.766063,8.65857989 118.712405,9.10826704 C119.684258,10.0304661 120.451489,8.73185927 121.08938,7.86451968 C121.262768,7.52014662 120.859531,7.40482169 121.196296,7.13973451 C121.476199,7.07366294 121.190289,7.53376137 121.40372,7.45327417 C124.478651,5.10152651 125.411662,0.0484524889 128.645966,0 C128.73326,0.0880954343 128.822958,0.172586964 128.907049,0.257478928 C128.88983,0.271494111 128.87141,0.289513632 128.855793,0.307933586 C129.167731,1.55888875 128.429732,2.80984392 127.711353,4.44681726 C126.889263,6.33526303 125.91701,8.23772397 123.934061,9.46425268 C126.134846,8.52923977 128.271961,6.34247083 130.659747,5.63850823 C131.264803,5.45991476 132.480119,5.12875601 132.886159,5.68776158 C133.593325,6.66882438 130.818319,8.98012822 129.726737,10.082122 C129.204971,10.6114955 128.953499,11.2605987 128.328021,11.7939765 C126.691048,13.1950943 123.889213,14.8496867 122.639059,13.7601064 C121.900258,13.118211 122.130508,11.9233166 121.142637,11.9517474 C121.730074,12.2420619 121.674013,13.0020852 122.120497,13.553883 C122.361558,13.8470005 122.739968,14.0127801 123.054308,14.2750643 C124.018553,15.0879449 124.925135,16.1530987 125.895787,17.1189451 C127.67091,18.8860594 129.503295,20.5734874 130.651739,22.2865431 C130.566446,22.3742381 130.474347,22.4643357 130.393859,22.5460242 C129.812029,22.3798442 129.561758,21.8905141 129.048402,21.410394 C127.021006,19.5075326 124.081822,17.0272457 122.433636,15.0026525 C122.166947,14.6734959 122.013181,14.2089927 121.708851,13.9691328 C121.159055,13.5314587 120.334162,13.5975303 120.005005,13.0897802 C120.542387,14.2574452 121.252356,13.8618166 121.86462,14.5345454 C122.227012,14.9369813 122.198982,15.7278381 122.067239,16.2952527 C121.814966,17.3940431 120.790656,19.1759734 119.848035,20.2775668 C119.313055,20.8986396 118.678768,21.1360969 118.138183,21.6750807 C116.92607,22.8675726 114.835004,25.5344616 113.789872,24.7804448 C113.093518,24.2791017 113.588054,22.8207218 113.789872,22.1928416 C114.444581,20.1882701 116.716643,17.9458408 117.414999,15.98812 C116.267356,17.7768578 114.519863,18.8311999 112.804004,19.5571864 C111.068925,20.2947855 109.867223,21.0243758 108.365196,20.8017346 C108.241462,20.6788015 108.119329,20.5614744 108,20.4405434 C108.644698,16.9355464 113.127555,16.5287056 115.399616,13.3500622 C115.475298,13.2091095 114.989171,13.3272375 115.295904,13.0385247 C115.804855,13.2952028 116.691415,12.3137395 117.364545,12.0030029 C117.483874,11.5372984 117.593593,11.0735961 117.210378,10.6078916 C116.730258,10.674764 116.245332,11.1176438 115.765212,11.1240507 C115.343555,10.6171016 114.218336,9.90232725 113.79668,9.47426352" id="Fill-1" fill="#F7925F"></path>
                    </g>
                </g>
            </g>
        </g>
    </g>
</svg>